<?xml version="1.0" encoding="UTF-8"?>
<!DOCTYPE svg PUBLIC "-//W3C//DTD SVG 1.1//EN" "http://www.w3.org/Graphics/SVG/1.1/DTD/svg11.dtd">
<svg version="1.1" xmlns="http://www.w3.org/2000/svg" xmlns:xlink="http://www.w3.org/1999/xlink" viewBox="0 0 1792 1792">
<defs><style type="text/css">path{display: none;}path:target{display: inline;} path{fill:#129f8d}</style></defs>
<path id="icon-search" d="M1265 1238q0-57-5.5-107t-21-100.5-39.5-86-64-58-91-22.5q-6 4-33.5 20.5t-42.5 24.5-40.5 20-49 17-46.5 5-46.5-5-49-17-40.5-20-42.5-24.5-33.5-20.5q-51 0-91 22.5t-64 58-39.5 86-21 100.5-5.5 107q0 73 42 121.5t103 48.5h576q61 0 103-48.5t42-121.5zm-173-594q0-108-76.5-184t-183.5-76-183.5 76-76.5 184q0 107 76.5 183t183.5 76 183.5-76 76.5-183zm636 540v192q0 14-9 23t-23 9h-96v224q0 66-47 113t-113 47h-1216q-66 0-113-47t-47-113v-1472q0-66 47-113t113-47h1216q66 0 113 47t47 113v224h96q14 0 23 9t9 23v192q0 14-9 23t-23 9h-96v128h96q14 0 23 9t9 23v192q0 14-9 23t-23 9h-96v128h96q14 0 23 9t9 23z"/>
<path id="icon-envelope" d="M1092 644q0 107-76.5 183t-183.5 76-183.5-76-76.5-183q0-108 76.5-184t183.5-76 183.5 76 76.5 184zm-48 220q46 0 82.5 17t60 47.5 39.5 67 24 81 11.5 82.5 3.5 79q0 67-39.5 118.5t-105.5 51.5h-576q-66 0-105.5-51.5t-39.5-118.5q0-48 4.5-93.5t18.5-98.5 36.5-91.5 63-64.5 93.5-26h5q7 4 32 19.5t35.5 21 33 17 37 16 35 9 39.5 4.5 39.5-4.5 35-9 37-16 33-17 35.5-21 32-19.5zm684-256q0 13-9.5 22.5t-22.5 9.5h-96v128h96q13 0 22.5 9.5t9.5 22.5v192q0 13-9.5 22.5t-22.5 9.5h-96v128h96q13 0 22.5 9.5t9.5 22.5v192q0 13-9.5 22.5t-22.5 9.5h-96v224q0 66-47 113t-113 47h-1216q-66 0-113-47t-47-113v-1472q0-66 47-113t113-47h1216q66 0 113 47t47 113v224h96q13 0 22.5 9.5t9.5 22.5v192zm-256 1024v-1472q0-13-9.5-22.5t-22.5-9.5h-1216q-13 0-22.5 9.5t-9.5 22.5v1472q0 13 9.5 22.5t22.5 9.5h1216q13 0 22.5-9.5t9.5-22.5z"/>
</svg>


